Coordinates
version=1
nRows=26
nColumns=22
inDegrees=yes

Units are S.I. units (second, meters, Newtons, ...)
If the header above contains a line with 'inDegrees', this indicates whether rotational values are in degrees (yes) or radians (no).

endheader
time	pelvis_tilt	pelvis_list	pelvis_rotation	pelvis_tx	pelvis_ty	pelvis_tz	hip_flexion_r	hip_adduction_r	hip_rotation_r	knee_angle_r	ankle_angle_r	subtalar_angle_r	hip_flexion_l	hip_adduction_l	hip_rotation_l	knee_angle_l	ankle_angle_l	subtalar_angle_l	lumbar_extension	lumbar_bending	lumbar_rotation
      0.01000000	     -7.39127322	      4.27827990	    -40.57197755	     -1.48558522	      0.88592451	     -0.35429728	     11.40384448	     -1.48139598	      0.50219797	    -10.95256765	     13.23177023	      3.13075089	     11.62747215	     -4.86237535	     -6.84131052	    -17.03837623	     15.22206671	      2.06459781	      3.27246712	     -0.59756376	      9.50368441
      0.02000000	     -7.40079070	      4.29696429	    -40.54966067	     -1.48547457	      0.88591446	     -0.35424574	     11.40298105	     -1.49569813	      0.48541840	    -10.93257103	     13.24074061	      3.13431157	     11.61701024	     -4.84779867	     -6.84132831	    -16.98781339	     15.20673468	      2.08140250	      3.28751430	     -0.61022899	      9.51116032
      0.03000000	     -7.41054586	      4.31529802	    -40.51819061	     -1.48534539	      0.88590428	     -0.35419841	     11.39569087	     -1.51178408	      0.47050439	    -10.90451766	     13.23964008	      3.13757357	     11.60460305	     -4.83130157	     -6.83044453	    -16.93286334	     15.18730376	      2.10033860	      3.30052175	     -0.62380515	      9.51511076
      0.04000000	     -7.40676288	      4.33133965	    -40.47634179	     -1.48519831	      0.88591419	     -0.35417790	     11.37318629	     -1.53879162	      0.44631604	    -10.87291678	     13.23207594	      3.14466985	     11.57348317	     -4.80009036	     -6.78785329	    -16.86100586	     15.14758993	      2.14091965	      3.29485984	     -0.64465056	      9.50740434
      0.05000000	     -7.42292964	      4.34173980	    -40.44311835	     -1.48504590	      0.88588855	     -0.35411538	     11.36325193	     -1.54412221	      0.41817946	    -10.84429872	     13.24256359	      3.14579917	     11.56078294	     -4.79650879	     -6.79986342	    -16.81049917	     15.14881075	      2.14871538	      3.30963113	     -0.64636672	      9.52056445
      0.06000000	     -7.41656441	      4.35139154	    -40.39108688	     -1.48485416	      0.88589560	     -0.35409674	     11.32724451	     -1.57108913	      0.36870001	    -10.80558267	     13.24846094	      3.15108641	     11.51415292	     -4.76457341	     -6.74669194	    -16.72331120	     15.11832650	      2.18337623	      3.30141243	     -0.66173369	      9.51194021
      0.07000000	     -7.43034218	      4.35997459	    -40.35619857	     -1.48468935	      0.88586150	     -0.35404768	     11.31401497	     -1.57724440	      0.33090825	    -10.77586031	     13.26522672	      3.15210210	     11.50087879	     -4.75946375	     -6.75898944	    -16.67829294	     15.12166336	      2.18905668	      3.31443184	     -0.66008650	      9.53318603
      0.08000000	     -7.43925443	      4.36779628	    -40.31560639	     -1.48451530	      0.88583053	     -0.35401110	     11.29594621	     -1.58742577	      0.28691201	    -10.74646069	     13.28370100	      3.15325839	     11.48209858	     -4.74839857	     -6.75082405	    -16.62859437	     15.12170919	      2.19707938	      3.32446556	     -0.66090177	      9.55319926
      0.09000000	     -7.41611446	      4.36351831	    -40.25309129	     -1.48428262	      0.88585460	     -0.35404046	     11.24051677	     -1.62014846	      0.20510483	    -10.71874981	     13.30810951	      3.16121889	     11.42349848	     -4.71030100	     -6.67724756	    -16.55848436	     15.10012729	      2.22311413	      3.29526843	     -0.66562496	      9.52926499
      0.10000000	     -7.42380307	      4.36758234	    -40.22061986	     -1.48413773	      0.88582772	     -0.35402692	     11.22598456	     -1.62631629	      0.17530945	    -10.69646704	     13.31965232	      3.16282511	     11.41936471	     -4.70487413	     -6.68019615	    -16.54081467	     15.10303030	      2.22509526	      3.29959636	     -0.65856794	      9.56503007
      0.11000000	     -7.42937202	      4.37085093	    -40.18638150	     -1.48398081	      0.88580621	     -0.35403613	     11.20954097	     -1.63592082	      0.13912152	    -10.67509923	     13.33090488	      3.16467926	     11.41312261	     -4.69521814	     -6.67051263	    -16.52046434	     15.10699523	      2.22753143	      3.30293770	     -0.64701340	      9.59554001
      0.12000000	     -7.43386100	      4.37282546	    -40.15116688	     -1.48382152	      0.88579306	     -0.35405923	     11.19226346	     -1.64651896	      0.09816009	    -10.65521334	     13.33945276	      3.16715972	     11.40625843	     -4.68404275	     -6.65149227	    -16.50102030	     15.11017493	      2.22962163	      3.30492721	     -0.63203804	      9.62276521
      0.13000000	     -7.43808590	      4.37301223	    -40.11556096	     -1.48363833	      0.88578363	     -0.35408671	     11.17125365	     -1.65772620	      0.04465717	    -10.63388262	     13.34478464	      3.17167964	     11.39372353	     -4.67118238	     -6.61870562	    -16.47681954	     15.11289033	      2.23093335	      3.31104653	     -0.60957429	      9.64296281
      0.14000000	     -7.44561768	      4.37311848	    -40.07823431	     -1.48348489	      0.88577333	     -0.35412669	     11.15801838	     -1.66550036	      0.00460346	    -10.61840709	     13.34574063	      3.17617200	     11.38461017	     -4.66262319	     -6.59319928	    -16.44876153	     15.11533040	      2.23010119	      3.31510685	     -0.58677912	      9.66023954
      0.15000000	     -7.45543262	      4.37509030	    -40.04473615	     -1.48334197	      0.88576052	     -0.35416339	     11.15127358	     -1.67079477	     -0.02445497	    -10.60855514	     13.34552570	      3.17905433	     11.37657743	     -4.65510443	     -6.57583490	    -16.41794473	     15.11882685	      2.22829838	      3.32312660	     -0.56290738	      9.67960041
      0.16000000	     -7.46719707	      4.37482579	    -40.00576951	     -1.48317370	      0.88575029	     -0.35421428	     11.14591973	     -1.67612864	     -0.06527633	    -10.60553414	     13.33930322	      3.18427325	     11.35871182	     -4.64575930	     -6.52659131	    -16.36927951	     15.11797523	      2.22163346	      3.33344969	     -0.53007062	      9.68317557
      0.17000000	     -7.48102236	      4.38149797	    -39.98083997	     -1.48302865	      0.88572540	     -0.35423660	     11.14810708	     -1.68020792	     -0.08809281	    -10.60044964	     13.34313861	      3.18352049	     11.34818162	     -4.63994752	     -6.52513261	    -16.32827025	     15.12523863	      2.21976434	      3.35188519	     -0.50240862	      9.71415950
      0.18000000	     -7.49784838	      4.38839964	    -39.96321946	     -1.48287047	      0.88569895	     -0.35425083	     11.16162225	     -1.68141489	     -0.10650358	    -10.61387018	     13.34278115	      3.17997105	     11.32559313	     -4.63355364	     -6.50444294	    -16.26528656	     15.13175209	      2.21846682	      3.37644735	     -0.46537587	      9.74025704
      0.19000000	     -7.51464899	      4.39652986	    -39.94470994	     -1.48273036	      0.88567092	     -0.35426610	     11.18046423	     -1.68210674	     -0.11918411	    -10.63350646	     13.34327890	      3.17439556	     11.30201788	     -4.62800183	     -6.48701813	    -16.19636630	     15.13663482	      2.21852307	      3.39821117	     -0.42914288	      9.76463064
      0.20000000	     -7.53161197	      4.40675224	    -39.93210152	     -1.48260339	      0.88564060	     -0.35427858	     11.20805292	     -1.68289961	     -0.12641516	    -10.66351735	     13.34409602	      3.16568237	     11.27353623	     -4.62168047	     -6.46514004	    -16.11711027	     15.13777778	      2.22026377	      3.41834108	     -0.39024366	      9.78919289
      0.21000000	     -7.54905968	      4.41746996	    -39.91932094	     -1.48249249	      0.88560936	     -0.35428028	     11.23857843	     -1.68250332	     -0.12915766	    -10.69572921	     13.34449218	      3.15741430	     11.24303909	     -4.61888713	     -6.45233403	    -16.03189118	     15.13929275	      2.22303332	      3.43591716	     -0.35117244	      9.81081604
      0.22000000	     -7.56283106	      4.43339707	    -39.92237634	     -1.48239896	      0.88557926	     -0.35427207	     11.28027607	     -1.68625429	     -0.12279891	    -10.74238046	     13.34979406	      3.14157561	     11.20330351	     -4.60992990	     -6.42496011	    -15.93440019	     15.12387333	      2.23194408	      3.45038733	     -0.31172970	      9.84925612
      0.23000000	     -7.58205659	      4.44571742	    -39.92151870	     -1.48230445	      0.88554301	     -0.35423790	     11.31404429	     -1.68345253	     -0.12208196	    -10.77065263	     13.34924326	      3.13618808	     11.16504660	     -4.61451231	     -6.43357442	    -15.83672161	     15.12758686	      2.23682214	      3.46518221	     -0.26362540	      9.85560916
      0.24000000	     -7.60316038	      4.45535304	    -39.93390493	     -1.48222806	      0.88551086	     -0.35417113	     11.35352534	     -1.67333780	     -0.11456416	    -10.80794205	     13.34822937	      3.13248135	     11.11558690	     -4.62566390	     -6.43004729	    -15.72470480	     15.12219727	      2.24612347	      3.47710240	     -0.20841415	      9.88257678
      0.25000000	     -7.61490469	      4.46507057	    -39.96728915	     -1.48217457	      0.88549541	     -0.35405638	     11.38840916	     -1.66431385	     -0.08053714	    -10.84684429	     13.34878381	      3.13021227	     11.04697181	     -4.63579208	     -6.43143661	    -15.60206932	     15.09720225	      2.27460757	      3.47708914	     -0.15913393	      9.93928515
      0.26000000	     -7.62847498	      4.47368433	    -40.00386933	     -1.48210082	      0.88548151	     -0.35388696	     11.41364968	     -1.65156204	     -0.04714133	    -10.87253762	     13.34609735	      3.13292355	     10.97272214	     -4.65292255	     -6.45711858	    -15.47475313	     15.08685929	      2.30904997	      3.48247717	     -0.10464599	      9.97676408
